<svg xmlns="http://www.w3.org/2000/svg" xmlns:xlink="http://www.w3.org/1999/xlink" width="64"
											height="64" viewBox="0 0 80 80"><defs><circle id="a" cx="40" cy="40" r="32"/></defs><clipPath id="b"><use overflow="visible" xlink:href="#a"/></clipPath><path fill="#f0bf1a" d="M53.7 26H10c-1.1 0-2-.9-2-2V10c0-1.1.9-2 2-2h57c1.1 0 2 .9 2 2v.7C68.9 19.1 62.1 26 53.7 26z" clip-path="url(#b)"/><defs><circle id="c" cx="40" cy="40" r="32"/></defs><clipPath id="d"><use overflow="visible" xlink:href="#c"/></clipPath><path fill="#3ebeb0" d="M69.1 72H8.2V54h45.7c8.4 0 15.2 6.8 15.2 15.2V72z" clip-path="url(#d)"/><defs><circle id="e" cx="40" cy="40" r="32"/></defs><clipPath id="f"><use overflow="visible" xlink:href="#e"/></clipPath><path fill="#07a5de" d="M50.1 49H4.8V31h45.3c5 0 9 4 9 9s-4.1 9-9 9z" clip-path="url(#f)"/><defs><circle id="g" cx="40" cy="40" r="32"/></defs><clipPath id="h"><use overflow="visible" xlink:href="#g"/></clipPath><path fill="#231f20" d="M36 31H6.4v18H36c.7-2.7 1.1-5.7 1.1-9s-.4-6.3-1.1-9z" clip-path="url(#h)"/><path fill="#d7a229" d="M23.9 12.3c-5.4 3.2-9.9 8-12.7 13.7h23.6c-2.4-5.5-6.2-10.1-10.9-13.7z"/><path fill="#019b8f" d="M24.9 68.2c4.6-3.7 8.3-8.6 10.6-14.2H11.2c3 6 7.8 11 13.7 14.2z"/><path fill="none" d="M0 0h80v80H0z"/></svg>